<svg width="40" height="40" viewBox="0 0 40 40" fill="none" xmlns="http://www.w3.org/2000/svg">
<path d="M19.9999 2.40002C10.2892 2.40002 2.3999 10.2893 2.3999 20C2.3999 28.8153 8.90193 36.1107 17.3702 37.3828L18.289 37.5219V23.6531H14.1312V20.8375H18.289V17.0985C18.289 14.796 18.8415 13.2796 19.7562 12.3281C20.6708 11.3767 22.0223 10.8969 23.903 10.8969C25.4069 10.8969 25.9919 10.988 26.5483 11.0563V13.361H24.5905C23.4797 13.361 22.5683 13.9807 22.0952 14.8063C21.6222 15.6318 21.4749 16.6175 21.4749 17.6219V20.836H26.3733L25.9374 23.6516H21.4749V37.5438L22.3827 37.4203C30.9714 36.2555 37.5999 28.9015 37.5999 20C37.5999 10.2893 29.7107 2.40002 19.9999 2.40002ZM19.9999 4.00002C28.846 4.00002 35.9999 11.154 35.9999 20C35.9999 27.7839 30.4285 34.1855 23.0749 35.6266V25.2516H27.3093L28.239 19.236H23.0749V17.6219C23.0749 16.7919 23.2268 16.0483 23.4827 15.6016C23.7387 15.1549 23.9854 14.961 24.5905 14.961H28.1483V9.60784L27.4546 9.51409C26.9748 9.44916 25.8793 9.2969 23.903 9.2969C21.7405 9.2969 19.8844 9.88598 18.603 11.2188C17.3217 12.5516 16.689 14.5361 16.689 17.0985V19.2375H12.5312V25.2531H16.689V35.5766C9.4535 34.0439 3.9999 27.6996 3.9999 20C3.9999 11.154 11.1539 4.00002 19.9999 4.00002Z" fill="white"/>
</svg>
