<svg width="40" height="40" viewBox="0 0 40 40" fill="none" xmlns="http://www.w3.org/2000/svg">
<path d="M20.0001 1.59998C9.84773 1.59998 1.6001 9.8476 1.6001 20C1.6001 23.2633 2.49505 26.3087 3.9876 28.9672L1.62979 37.3844C1.59212 37.519 1.59041 37.6613 1.62485 37.7968C1.65928 37.9324 1.72865 38.0565 1.82603 38.1569C1.92342 38.2573 2.04541 38.3304 2.17986 38.3689C2.31431 38.4075 2.45651 38.4101 2.59229 38.3765L11.3688 36.2015C13.9478 37.5783 16.8742 38.4 20.0001 38.4C30.1525 38.4 38.4001 30.1523 38.4001 20C38.4001 9.8476 30.1525 1.59998 20.0001 1.59998ZM20.0001 3.19998C29.2877 3.19998 36.8001 10.7123 36.8001 20C36.8001 29.2876 29.2877 36.8 20.0001 36.8C17.0225 36.8 14.2338 36.0237 11.8095 34.6672C11.6322 34.5681 11.4238 34.5402 11.2267 34.589L3.54072 36.4937L5.60166 29.1406C5.63115 29.0367 5.63929 28.9279 5.6256 28.8207C5.6119 28.7136 5.57665 28.6103 5.52197 28.5172C4.04865 26.0188 3.2001 23.1121 3.2001 20C3.2001 10.7123 10.7125 3.19998 20.0001 3.19998ZM13.3142 10.4C12.8013 10.4 12.0689 10.5908 11.4673 11.239C11.1059 11.6284 9.6001 13.0956 9.6001 15.675C9.6001 18.3642 11.4652 20.6847 11.6907 20.9828H11.6923V20.9844C11.6709 20.9562 11.9785 21.4017 12.3892 21.9359C12.7998 22.4701 13.374 23.1717 14.0954 23.9312C15.5382 25.4503 17.5667 27.2059 20.0845 28.2797C21.2439 28.7734 22.1586 29.0715 22.8517 29.289C24.136 29.6923 25.3058 29.631 26.1845 29.5015C26.8422 29.4047 27.5656 29.0889 28.2813 28.6359C28.9971 28.183 29.6986 27.6198 30.0079 26.764C30.2295 26.1506 30.3422 25.5837 30.3829 25.1172C30.4033 24.8839 30.4059 24.6781 30.3907 24.4875C30.3755 24.2969 30.3918 24.1509 30.2142 23.8594C29.8417 23.2478 29.4199 23.2319 28.9798 23.014C28.7352 22.893 28.039 22.553 27.3407 22.2203C26.6432 21.8879 26.0392 21.5935 25.6673 21.4609C25.4323 21.3764 25.1453 21.2547 24.7313 21.3015C24.3174 21.3484 23.9085 21.6471 23.6704 22C23.4448 22.3344 22.5364 23.4067 22.2595 23.7219C22.2558 23.7196 22.2798 23.7307 22.1704 23.6765C21.8279 23.507 21.409 23.3629 20.7892 23.0359C20.1693 22.7089 19.3939 22.2261 18.5454 21.4781V21.4765C17.2825 20.3647 16.3979 18.9689 16.1188 18.5C16.1376 18.4776 16.1166 18.5047 16.1563 18.4656L16.1579 18.464C16.4431 18.1831 16.6959 17.8476 16.9095 17.6015C17.2123 17.2527 17.3459 16.9451 17.4907 16.6578C17.7793 16.0851 17.6186 15.455 17.4517 15.1234V15.1219C17.4632 15.1448 17.3614 14.9201 17.2517 14.6609C17.1417 14.401 17.0014 14.064 16.8517 13.7047C16.5521 12.986 16.2177 12.1799 16.0188 11.7078V11.7062C15.7846 11.1501 15.4676 10.7495 15.0532 10.5562C14.6388 10.3629 14.2727 10.4179 14.2579 10.4172H14.2563C13.9606 10.4035 13.6361 10.4 13.3142 10.4ZM13.3142 12C13.6226 12 13.9267 12.0037 14.1813 12.0156C14.4433 12.0287 14.427 12.0297 14.3767 12.0062C14.3255 11.9824 14.3949 11.9746 14.5438 12.3281C14.7386 12.7904 15.0746 13.5994 15.3751 14.3203C15.5253 14.6807 15.6659 15.019 15.7782 15.2844C15.8905 15.5497 15.9514 15.6978 16.022 15.839V15.8406L16.0235 15.8422C16.0928 15.9788 16.0866 15.8913 16.0626 15.939C15.8938 16.2741 15.8709 16.3564 15.7001 16.5531C15.4401 16.8526 15.1749 17.1867 15.0345 17.325C14.9116 17.4456 14.69 17.6336 14.5517 18.0015C14.4131 18.37 14.4778 18.8756 14.7001 19.2531C14.9961 19.7557 15.9716 21.3434 17.4876 22.6781C18.4423 23.5197 19.3317 24.0767 20.0423 24.4515C20.7528 24.8264 21.3315 25.0453 21.461 25.1094C21.7685 25.2615 22.1046 25.3797 22.4954 25.3328C22.8862 25.2859 23.2231 25.0488 23.4376 24.8062L23.4392 24.8047C23.7246 24.4811 24.5728 23.5126 24.9798 22.9156C24.997 22.9217 24.9914 22.917 25.1267 22.9656V22.9672H25.1282C25.19 22.9892 25.9635 23.3354 26.6532 23.664C27.3429 23.9927 28.0429 24.3343 28.2704 24.4469C28.5987 24.6093 28.7538 24.7151 28.7938 24.7156C28.7966 24.786 28.7993 24.8623 28.7892 24.9781C28.7611 25.2994 28.6752 25.7442 28.5032 26.2203C28.419 26.4534 27.9801 26.9341 27.4267 27.2844C26.8732 27.6346 26.1996 27.882 25.9501 27.9187C25.2 28.0292 24.3094 28.0696 23.3313 27.7625C22.6532 27.5496 21.8075 27.2741 20.7126 26.8078C18.4919 25.8607 16.6046 24.2492 15.2563 22.8297C14.5822 22.1199 14.0421 21.4592 13.6579 20.9594C13.2744 20.4604 13.1069 20.2008 12.9673 20.0172L12.9657 20.0156C12.7179 19.6878 11.2001 17.5767 11.2001 15.675C11.2001 13.6624 12.1349 12.8731 12.6407 12.3281C12.9063 12.042 13.1966 12 13.3142 12Z" fill="white"/>
</svg>
